<?xml version="1.0" encoding="UTF-8" standalone="no"?>
<svg
   viewBox="0 0 576 512"
   version="1.1"
   id="svg1"
   sodipodi:docname="mask-vcong.svg"
   inkscape:version="1.3.2 (091e20e, 2023-11-25)"
   xmlns:inkscape="http://www.inkscape.org/namespaces/inkscape"
   xmlns:sodipodi="http://sodipodi.sourceforge.net/DTD/sodipodi-0.dtd"
   xmlns="http://www.w3.org/2000/svg"
   xmlns:svg="http://www.w3.org/2000/svg">
  <defs
     id="defs1" />
  <sodipodi:namedview
     id="namedview1"
     pagecolor="#505050"
     bordercolor="#eeeeee"
     borderopacity="1"
     inkscape:showpageshadow="0"
     inkscape:pageopacity="0"
     inkscape:pagecheckerboard="0"
     inkscape:deskcolor="#505050"
     inkscape:zoom="1.5839844"
     inkscape:cx="287.88163"
     inkscape:cy="256"
     inkscape:window-width="960"
     inkscape:window-height="1008"
     inkscape:window-x="960"
     inkscape:window-y="0"
     inkscape:window-maximized="0"
     inkscape:current-layer="svg1" />
  <!--!Font Awesome Free 6.5.2 by @fontawesome - https://fontawesome.com License - https://fontawesome.com/license/free Copyright 2024 Fonticons, Inc.-->
  <path
     d="M288 64C64 64 0 160 0 272S80 448 176 448h8.4c24.2 0 46.4-13.7 57.2-35.4l23.2-46.3c4.4-8.8 13.3-14.3 23.2-14.3s18.8 5.5 23.2 14.3l23.2 46.3c10.8 21.7 33 35.4 57.2 35.4H400c96 0 176-64 176-176s-64-208-288-208zM96 256a64 64 0 1 1 128 0A64 64 0 1 1 96 256zm320-64a64 64 0 1 1 0 128 64 64 0 1 1 0-128z"
     id="path1"
     style="fill:#236d3f;fill-opacity:1" />
</svg>
