<?xml version="1.0" encoding="UTF-8" standalone="no"?>
<svg
   viewBox="0 0 512 512"
   version="1.1"
   id="svg1"
   sodipodi:docname="dove-eua.svg"
   inkscape:version="1.3.2 (091e20e, 2023-11-25)"
   xmlns:inkscape="http://www.inkscape.org/namespaces/inkscape"
   xmlns:sodipodi="http://sodipodi.sourceforge.net/DTD/sodipodi-0.dtd"
   xmlns="http://www.w3.org/2000/svg"
   xmlns:svg="http://www.w3.org/2000/svg">
  <defs
     id="defs1" />
  <sodipodi:namedview
     id="namedview1"
     pagecolor="#505050"
     bordercolor="#eeeeee"
     borderopacity="1"
     inkscape:showpageshadow="0"
     inkscape:pageopacity="0"
     inkscape:pagecheckerboard="0"
     inkscape:deskcolor="#505050"
     inkscape:zoom="1.5839844"
     inkscape:cx="256.31566"
     inkscape:cy="256"
     inkscape:window-width="960"
     inkscape:window-height="1008"
     inkscape:window-x="960"
     inkscape:window-y="0"
     inkscape:window-maximized="0"
     inkscape:current-layer="svg1" />
  <!--!Font Awesome Free 6.5.2 by @fontawesome - https://fontawesome.com License - https://fontawesome.com/license/free Copyright 2024 Fonticons, Inc.-->
  <path
     d="M160.8 96.5c14 17 31 30.9 49.5 42.2c25.9 15.8 53.7 25.9 77.7 31.6V138.8C265.8 108.5 250 71.5 248.6 28c-.4-11.3-7.5-21.5-18.4-24.4c-7.6-2-15.8-.2-21 5.8c-13.3 15.4-32.7 44.6-48.4 87.2zM320 144v30.6l0 0v1.3l0 0 0 32.1c-60.8-5.1-185-43.8-219.3-157.2C97.4 40 87.9 32 76.6 32c-7.9 0-15.3 3.9-18.8 11C46.8 65.9 32 112.1 32 176c0 116.9 80.1 180.5 118.4 202.8L11.8 416.6C6.7 418 2.6 421.8 .9 426.8s-.8 10.6 2.3 14.8C21.7 466.2 77.3 512 160 512c3.6 0 7.2-1.2 10-3.5L245.6 448H320c88.4 0 160-71.6 160-160V128l29.9-44.9c1.3-2 2.1-4.4 2.1-6.8c0-6.8-5.5-12.3-12.3-12.3H400c-44.2 0-80 35.8-80 80zm80-16a16 16 0 1 1 0 32 16 16 0 1 1 0-32z"
     id="path1"
     style="fill:#0a3161;fill-opacity:1" />
</svg>
