<?xml version="1.0" encoding="UTF-8" standalone="no"?>
<svg
   viewBox="0 0 576 512"
   version="1.1"
   id="svg1"
   sodipodi:docname="gun-vcong.svg"
   inkscape:version="1.3.2 (091e20e, 2023-11-25)"
   xmlns:inkscape="http://www.inkscape.org/namespaces/inkscape"
   xmlns:sodipodi="http://sodipodi.sourceforge.net/DTD/sodipodi-0.dtd"
   xmlns="http://www.w3.org/2000/svg"
   xmlns:svg="http://www.w3.org/2000/svg">
  <defs
     id="defs1" />
  <sodipodi:namedview
     id="namedview1"
     pagecolor="#505050"
     bordercolor="#eeeeee"
     borderopacity="1"
     inkscape:showpageshadow="0"
     inkscape:pageopacity="0"
     inkscape:pagecheckerboard="0"
     inkscape:deskcolor="#505050"
     inkscape:zoom="1.5839844"
     inkscape:cx="287.88163"
     inkscape:cy="256"
     inkscape:window-width="960"
     inkscape:window-height="1008"
     inkscape:window-x="960"
     inkscape:window-y="0"
     inkscape:window-maximized="0"
     inkscape:current-layer="svg1" />
  <!--!Font Awesome Free 6.5.2 by @fontawesome - https://fontawesome.com License - https://fontawesome.com/license/free Copyright 2024 Fonticons, Inc.-->
  <path
     d="M528 56c0-13.3-10.7-24-24-24s-24 10.7-24 24v8H32C14.3 64 0 78.3 0 96V208c0 17.7 14.3 32 32 32H42c20.8 0 36.1 19.6 31 39.8L33 440.2c-2.4 9.6-.2 19.7 5.8 27.5S54.1 480 64 480h96c14.7 0 27.5-10 31-24.2L217 352H321.4c23.7 0 44.8-14.9 52.7-37.2L400.9 240H432c8.5 0 16.6-3.4 22.6-9.4L477.3 208H544c17.7 0 32-14.3 32-32V96c0-17.7-14.3-32-32-32H528V56zM321.4 304H229l16-64h105l-21 58.7c-1.1 3.2-4.2 5.3-7.5 5.3zM80 128H464c8.8 0 16 7.2 16 16s-7.2 16-16 16H80c-8.8 0-16-7.2-16-16s7.2-16 16-16z"
     id="path1"
     style="fill:#236d3f;fill-opacity:1" />
</svg>
