<?xml version="1.0" encoding="UTF-8" standalone="no"?>
<svg
   viewBox="0 0 576 512"
   version="1.1"
   id="svg1"
   sodipodi:docname="house-medical-vcong.svg"
   inkscape:version="1.3.2 (091e20e, 2023-11-25)"
   xmlns:inkscape="http://www.inkscape.org/namespaces/inkscape"
   xmlns:sodipodi="http://sodipodi.sourceforge.net/DTD/sodipodi-0.dtd"
   xmlns="http://www.w3.org/2000/svg"
   xmlns:svg="http://www.w3.org/2000/svg">
  <defs
     id="defs1" />
  <sodipodi:namedview
     id="namedview1"
     pagecolor="#505050"
     bordercolor="#eeeeee"
     borderopacity="1"
     inkscape:showpageshadow="0"
     inkscape:pageopacity="0"
     inkscape:pagecheckerboard="0"
     inkscape:deskcolor="#505050"
     inkscape:zoom="0.56002305"
     inkscape:cx="301.77329"
     inkscape:cy="468.73071"
     inkscape:window-width="960"
     inkscape:window-height="1008"
     inkscape:window-x="960"
     inkscape:window-y="0"
     inkscape:window-maximized="0"
     inkscape:current-layer="svg1" />
  <!--!Font Awesome Free 6.5.2 by @fontawesome - https://fontawesome.com License - https://fontawesome.com/license/free Copyright 2024 Fonticons, Inc.-->
  <path
     d="M543.8 287.6c17 0 32-14 32-32.1c1-9-3-17-11-24L309.5 7c-6-5-14-7-21-7s-15 1-22 8L10 231.5c-7 7-10 15-10 24c0 18 14 32.1 32 32.1h32V448c0 35.3 28.7 64 64 64H448.5c35.5 0 64.2-28.8 64-64.3l-.7-160.2h32zM256 208c0-8.8 7.2-16 16-16h32c8.8 0 16 7.2 16 16v48h48c8.8 0 16 7.2 16 16v32c0 8.8-7.2 16-16 16H320v48c0 8.8-7.2 16-16 16H272c-8.8 0-16-7.2-16-16V320H208c-8.8 0-16-7.2-16-16V272c0-8.8 7.2-16 16-16h48V208z"
     id="path1"
     style="fill:#236d3f;fill-opacity:1" />
</svg>
