<?xml version="1.0" encoding="UTF-8" standalone="no"?>
<svg
   viewBox="0 0 640 512"
   version="1.1"
   id="svg1"
   sodipodi:docname="land-mine-on-eua.svg"
   inkscape:version="1.3.2 (091e20e, 2023-11-25)"
   xmlns:inkscape="http://www.inkscape.org/namespaces/inkscape"
   xmlns:sodipodi="http://sodipodi.sourceforge.net/DTD/sodipodi-0.dtd"
   xmlns="http://www.w3.org/2000/svg"
   xmlns:svg="http://www.w3.org/2000/svg">
  <defs
     id="defs1" />
  <sodipodi:namedview
     id="namedview1"
     pagecolor="#505050"
     bordercolor="#eeeeee"
     borderopacity="1"
     inkscape:showpageshadow="0"
     inkscape:pageopacity="0"
     inkscape:pagecheckerboard="0"
     inkscape:deskcolor="#505050"
     inkscape:zoom="0.56002305"
     inkscape:cx="251.77535"
     inkscape:cy="277.66714"
     inkscape:window-width="960"
     inkscape:window-height="1008"
     inkscape:window-x="960"
     inkscape:window-y="0"
     inkscape:window-maximized="0"
     inkscape:current-layer="svg1" />
  <!--!Font Awesome Free 6.5.2 by @fontawesome - https://fontawesome.com License - https://fontawesome.com/license/free Copyright 2024 Fonticons, Inc.-->
  <path
     d="M344 24V168c0 13.3-10.7 24-24 24s-24-10.7-24-24V24c0-13.3 10.7-24 24-24s24 10.7 24 24zM192 320c0-17.7 14.3-32 32-32H416c17.7 0 32 14.3 32 32v32H192V320zm-77.3 90.5c8.1-16.3 24.8-26.5 42.9-26.5H482.3c18.2 0 34.8 10.3 42.9 26.5l27.6 55.2C563.5 487 548 512 524.2 512H115.8c-23.8 0-39.3-25-28.6-46.3l27.6-55.2zM36.3 138.3c7.5-10.9 22.5-13.6 33.4-6.1l104 72c10.9 7.5 13.6 22.5 6.1 33.4s-22.5 13.6-33.4 6.1l-104-72c-10.9-7.5-13.6-22.5-6.1-33.4zm534.1-6.1c10.9-7.5 25.8-4.8 33.4 6.1s4.8 25.8-6.1 33.4l-104 72c-10.9 7.5-25.8 4.8-33.4-6.1s-4.8-25.8 6.1-33.4l104-72z"
     id="path1"
     style="fill:#0a3161;fill-opacity:1" />
</svg>
