<?xml version="1.0" encoding="UTF-8" standalone="no"?>
<svg
   viewBox="0 0 640 512"
   version="1.1"
   id="svg1"
   sodipodi:docname="tents-eua.svg"
   inkscape:version="1.3.2 (091e20e, 2023-11-25)"
   xmlns:inkscape="http://www.inkscape.org/namespaces/inkscape"
   xmlns:sodipodi="http://sodipodi.sourceforge.net/DTD/sodipodi-0.dtd"
   xmlns="http://www.w3.org/2000/svg"
   xmlns:svg="http://www.w3.org/2000/svg">
  <defs
     id="defs1" />
  <sodipodi:namedview
     id="namedview1"
     pagecolor="#505050"
     bordercolor="#eeeeee"
     borderopacity="1"
     inkscape:showpageshadow="0"
     inkscape:pageopacity="0"
     inkscape:pagecheckerboard="0"
     inkscape:deskcolor="#505050"
     inkscape:zoom="1.5839844"
     inkscape:cx="320.07891"
     inkscape:cy="256"
     inkscape:window-width="960"
     inkscape:window-height="1008"
     inkscape:window-x="960"
     inkscape:window-y="0"
     inkscape:window-maximized="0"
     inkscape:current-layer="svg1" />
  <!--!Font Awesome Free 6.5.2 by @fontawesome - https://fontawesome.com License - https://fontawesome.com/license/free Copyright 2024 Fonticons, Inc.-->
  <path
     d="M396.6 6.5L235.8 129.1c9.6 1.8 18.9 5.8 27 12l168 128c13.2 10.1 22 24.9 24.5 41.4l6.2 41.5H608c9.3 0 18.2-4.1 24.2-11.1s8.8-16.4 7.4-25.6l-24-160c-1.2-8.2-5.6-15.7-12.3-20.7l-168-128c-11.5-8.7-27.3-8.7-38.8 0zm-153.2 160c-11.5-8.7-27.3-8.7-38.8 0l-168 128c-6.6 5-11 12.5-12.3 20.7l-24 160c-1.4 9.2 1.3 18.6 7.4 25.6S22.7 512 32 512H176h16c17.7 0 32-14.3 32-32V361.9c0-5.5 4.4-9.9 9.9-9.9c3.7 0 7.2 2.1 8.8 5.5l68.4 136.8c5.4 10.8 16.5 17.7 28.6 17.7H400h16c9.3 0 18.2-4.1 24.2-11.1s8.8-16.4 7.4-25.6l-24-160c-1.2-8.2-5.6-15.7-12.3-20.7l-168-128z"
     id="path1"
     style="fill:#0a3161;fill-opacity:1" />
</svg>
