<?xml version="1.0" encoding="UTF-8" standalone="no"?>
<svg
   viewBox="0 0 576 512"
   version="1.1"
   id="svg1"
   sodipodi:docname="anchor-norte.svg"
   inkscape:version="1.3.2 (091e20e, 2023-11-25)"
   xmlns:inkscape="http://www.inkscape.org/namespaces/inkscape"
   xmlns:sodipodi="http://sodipodi.sourceforge.net/DTD/sodipodi-0.dtd"
   xmlns="http://www.w3.org/2000/svg"
   xmlns:svg="http://www.w3.org/2000/svg">
  <defs
     id="defs1" />
  <sodipodi:namedview
     id="namedview1"
     pagecolor="#505050"
     bordercolor="#eeeeee"
     borderopacity="1"
     inkscape:showpageshadow="0"
     inkscape:pageopacity="0"
     inkscape:pagecheckerboard="0"
     inkscape:deskcolor="#505050"
     showgrid="false"
     inkscape:zoom="1.5839844"
     inkscape:cx="287.88163"
     inkscape:cy="256"
     inkscape:window-width="960"
     inkscape:window-height="1008"
     inkscape:window-x="960"
     inkscape:window-y="0"
     inkscape:window-maximized="0"
     inkscape:current-layer="svg1" />
  <!--!Font Awesome Free 6.5.2 by @fontawesome - https://fontawesome.com License - https://fontawesome.com/license/free Copyright 2024 Fonticons, Inc.-->
  <path
     d="M320 96a32 32 0 1 1 -64 0 32 32 0 1 1 64 0zm21.1 80C367 158.8 384 129.4 384 96c0-53-43-96-96-96s-96 43-96 96c0 33.4 17 62.8 42.9 80H224c-17.7 0-32 14.3-32 32s14.3 32 32 32h32V448H208c-53 0-96-43-96-96v-6.1l7 7c9.4 9.4 24.6 9.4 33.9 0s9.4-24.6 0-33.9L97 263c-9.4-9.4-24.6-9.4-33.9 0L7 319c-9.4 9.4-9.4 24.6 0 33.9s24.6 9.4 33.9 0l7-7V352c0 88.4 71.6 160 160 160h80 80c88.4 0 160-71.6 160-160v-6.1l7 7c9.4 9.4 24.6 9.4 33.9 0s9.4-24.6 0-33.9l-56-56c-9.4-9.4-24.6-9.4-33.9 0l-56 56c-9.4 9.4-9.4 24.6 0 33.9s24.6 9.4 33.9 0l7-7V352c0 53-43 96-96 96H320V240h32c17.7 0 32-14.3 32-32s-14.3-32-32-32H341.1z"
     id="path1"
     style="fill:#c8102e;fill-opacity:1" />
</svg>
