<?xml version="1.0" encoding="UTF-8" standalone="no"?>
<svg
   viewBox="0 0 640 512"
   version="1.1"
   id="svg1"
   sodipodi:docname="jet-fighter-eua.svg"
   inkscape:version="1.3.2 (091e20e, 2023-11-25)"
   xmlns:inkscape="http://www.inkscape.org/namespaces/inkscape"
   xmlns:sodipodi="http://sodipodi.sourceforge.net/DTD/sodipodi-0.dtd"
   xmlns="http://www.w3.org/2000/svg"
   xmlns:svg="http://www.w3.org/2000/svg">
  <defs
     id="defs1" />
  <sodipodi:namedview
     id="namedview1"
     pagecolor="#505050"
     bordercolor="#eeeeee"
     borderopacity="1"
     inkscape:showpageshadow="0"
     inkscape:pageopacity="0"
     inkscape:pagecheckerboard="0"
     inkscape:deskcolor="#505050"
     inkscape:zoom="0.56002305"
     inkscape:cx="262.4892"
     inkscape:cy="220.52664"
     inkscape:window-width="960"
     inkscape:window-height="1008"
     inkscape:window-x="960"
     inkscape:window-y="0"
     inkscape:window-maximized="0"
     inkscape:current-layer="svg1" />
  <!--!Font Awesome Free 6.5.2 by @fontawesome - https://fontawesome.com License - https://fontawesome.com/license/free Copyright 2024 Fonticons, Inc.-->
  <path
     d="M160 24c0-13.3 10.7-24 24-24H296c13.3 0 24 10.7 24 24s-10.7 24-24 24H280L384 192H500.4c7.7 0 15.3 1.4 22.5 4.1L625 234.4c9 3.4 15 12 15 21.6s-6 18.2-15 21.6L522.9 315.9c-7.2 2.7-14.8 4.1-22.5 4.1H384L280 464h16c13.3 0 24 10.7 24 24s-10.7 24-24 24H184c-13.3 0-24-10.7-24-24s10.7-24 24-24h8V320H160l-54.6 54.6c-6 6-14.1 9.4-22.6 9.4H64c-17.7 0-32-14.3-32-32V288c-17.7 0-32-14.3-32-32s14.3-32 32-32V160c0-17.7 14.3-32 32-32H82.7c8.5 0 16.6 3.4 22.6 9.4L160 192h32V48h-8c-13.3 0-24-10.7-24-24zM80 240c-8.8 0-16 7.2-16 16s7.2 16 16 16h64c8.8 0 16-7.2 16-16s-7.2-16-16-16H80z"
     id="path1"
     style="fill:#0a3161;fill-opacity:1" />
</svg>
